Coordinates
version=1
nRows=4
nColumns=60
inDegrees=yes

Units are S.I. units (second, meters, Newtons, ...)
If the header above contains a line with 'inDegrees', this indicates whether rotational values are in degrees (yes) or radians (no).

endheader
time	pelvis_tilt	pelvis_list	pelvis_rotation	pelvis_tx	pelvis_ty	pelvis_tz	hip_flexion_r	hip_adduction_r	hip_rotation_r	knee_angle_r_beta	knee_angle_r	ankle_angle_r	subtalar_angle_r	mtp_angle_r	hip_flexion_l	hip_adduction_l	hip_rotation_l	knee_angle_l_beta	knee_angle_l	ankle_angle_l	subtalar_angle_l	mtp_angle_l	L5_S1_Flex_Ext	L5_S1_Lat_Bending	L5_S1_axial_rotation	L4_L5_Flex_Ext	L4_L5_Lat_Bending	L4_L5_axial_rotation	L3_L4_Flex_Ext	L3_L4_Lat_Bending	L3_L4_axial_rotation	L2_L3_Flex_Ext	L2_L3_Lat_Bending	L2_L3_axial_rotation	L1_L2_Flex_Ext	L1_L2_Lat_Bending	L1_L2_axial_rotation	L1_T12_Flex_Ext	L1_T12_Lat_Bending	L1_T12_axial_rotation	Abs_r3	Abs_r2	Abs_r1	Abs_t1	Abs_t2	arm_flex_r	arm_add_r	arm_rot_r	elbow_flex_r	pro_sup_r	wrist_flex_r	wrist_dev_r	arm_flex_l	arm_add_l	arm_rot_l	elbow_flex_l	pro_sup_l	wrist_flex_l	wrist_dev_l
     38.74000000	      0.51508692	     -6.02279057	     93.47250781	      0.40681320	      0.87451591	      0.40225717	     36.97912926	     -5.75627201	      0.39631952	      0.65146910	    -37.32643018	      9.03306777	      0.00000000	      0.00000000	     37.59410244	     -5.91737051	     -0.32308919	      0.61145234	    -35.03363838	      7.38570972	      0.00000000	      0.00000000	    -10.33941780	      0.20741063	     -0.06895227	    -19.20133280	      0.27585613	     -0.07326179	    -16.98662950	      0.50429820	     -0.07326179	    -11.81692060	      0.50429820	     -0.06033324	     -9.60118337	      0.42295175	     -0.05602372	     -5.90794333	      0.32127906	     -0.05171420	    -73.85342740	      2.34627049	     -0.38349185	      0.00000000	      0.00000000	     54.16278988	    -21.34313226	      8.23329059	     69.63040813	     75.65450336	      4.12864066	     13.98545728	     62.34215733	    -23.21620983	     19.03038435	     61.25931568	     69.94390640	     12.76399356	      9.89497463
     38.75000000	      0.54005788	     -5.46862648	     93.42113669	      0.40687563	      0.87730431	      0.40038023	     35.81847235	     -5.62315208	      0.48833959	      0.63788703	    -36.54823481	      8.97205328	      0.00000000	      0.00000000	     36.45194276	     -5.95929723	     -0.23703631	      0.59888710	    -34.31370313	      7.41031365	      0.00000000	      0.00000000	    -10.29318147	      0.20305186	     -0.06748211	    -19.11546731	      0.27005898	     -0.07169974	    -16.91066784	      0.49370030	     -0.07169974	    -11.76407710	      0.49370030	     -0.05904685	     -9.55824831	      0.41406336	     -0.05482921	     -5.88152389	      0.31452733	     -0.05061158	    -73.52316593	      2.29696327	     -0.37531525	      0.00000000	      0.00000000	     52.51033083	    -21.62178150	      8.01864510	     70.96989812	     75.60586125	      4.01211919	     14.16243440	     60.58568810	    -23.65386244	     18.54499694	     62.89209545	     69.99371871	     12.66516446	     10.17182541
     38.76000000	      0.56542251	     -4.81325314	     93.34856938	      0.40698135	      0.88017158	      0.39824876	     34.58351926	     -5.52122957	      0.37716905	      0.62574982	    -35.85282368	      8.92240700	      0.00000000	      0.00000000	     35.23233682	     -6.06001626	     -0.32286073	      0.58799457	    -33.68960728	      7.45225279	      0.00000000	      0.00000000	    -10.25847254	      0.19637276	     -0.06590343	    -19.05100935	      0.26117577	     -0.07002239	    -16.85364454	      0.47746073	     -0.07002239	    -11.72440827	      0.47746073	     -0.05766550	     -9.52601760	      0.40044334	     -0.05354653	     -5.86169121	      0.30418141	     -0.04942757	    -73.27524350	      2.22140795	     -0.36653509	      0.00000000	      0.00000000	     50.82832810	    -21.87830925	      7.79978313	     72.40336887	     75.53784199	      3.88817006	     14.39478101	     58.75095244	    -24.08909289	     17.93109816	     64.67650984	     70.03613261	     12.54354103	     10.51986971
     38.77000000	      0.59599545	     -3.98434281	     93.26678858	      0.40700281	      0.88324514	      0.39594753	     33.19460108	     -5.37518312	      0.44783064	      0.61523908	    -35.25060273	      8.83095751	      0.00000000	      0.00000000	     33.84820387	     -6.14718257	     -0.25970686	      0.57882603	    -33.16428858	      7.47207939	      0.00000000	      0.00000000	    -10.25301166	      0.19139629	     -0.07426210	    -19.04086796	      0.25455706	     -0.07890348	    -16.84467286	      0.46536093	     -0.07890348	    -11.71816703	      0.46536093	     -0.06497933	     -9.52094663	      0.39029531	     -0.06033795	     -5.85857086	      0.29647285	     -0.05569657	    -73.23623701	      2.16511307	     -0.41302350	      0.00000000	      0.00000000	     49.21811645	    -22.12982927	      7.55006862	     73.97507343	     75.41479899	      3.69505043	     14.81793896	     56.82827382	    -24.57094623	     17.05138097	     66.72074655	     70.07165814	     12.34495006	     11.13044102
